<?xml version="1.0" encoding="UTF-8" standalone="no"?>
<svg
   viewBox="0 0 100 100"
   version="1.1"
   xml:space="preserve"
   x="0px"
   y="0px"
   fill-rule="evenodd"
   clip-rule="evenodd"
   stroke-linejoin="round"
   stroke-miterlimit="2"
   id="svg2"
   width="100"
   height="100"
   sodipodi:docname="watermelon.svg"
   inkscape:version="1.4.2 (ebf0e940d0, 2025-05-08)"
   xmlns:inkscape="http://www.inkscape.org/namespaces/inkscape"
   xmlns:sodipodi="http://sodipodi.sourceforge.net/DTD/sodipodi-0.dtd"
   xmlns="http://www.w3.org/2000/svg"
   xmlns:svg="http://www.w3.org/2000/svg"
   xmlns:serif="http://www.serif.com/"><sodipodi:namedview
     id="namedview1"
     pagecolor="#505050"
     bordercolor="#ffffff"
     borderopacity="1"
     inkscape:showpageshadow="0"
     inkscape:pageopacity="0"
     inkscape:pagecheckerboard="1"
     inkscape:deskcolor="#505050"
     inkscape:zoom="8.03"
     inkscape:cx="44.894147"
     inkscape:cy="46.139477"
     inkscape:window-width="1920"
     inkscape:window-height="1012"
     inkscape:window-x="0"
     inkscape:window-y="0"
     inkscape:window-maximized="1"
     inkscape:current-layer="svg2" /><defs
     id="defs2" /><rect
     serif:id="Page 79"
     x="0"
     y="0"
     width="100"
     height="100"
     fill="none"
     id="rect1" /><path
     d="m 5.118,75.03 c 0,0 36.764,-63.678 36.764,-63.678 0.158,-0.273 0.449,-0.441 0.765,-0.441 h 14.705 0.015 0.015 l 0.015,0.001 0.014,10e-4 c 0,0 0,0 0,0 0.01,0 0.02,10e-4 0.029,0.002 0.281,0.028 0.534,0.19 0.677,0.437 0,0 36.764,63.678 36.764,63.678 0.158,0.273 0.158,0.61 0,0.883 l -7.353,12.735 -0.007,0.013 -0.008,0.013 -0.008,0.012 -0.008,0.012 -0.008,0.012 -0.008,0.012 -0.009,0.012 -0.009,0.012 -0.009,0.011 -0.009,0.011 -0.009,0.011 -0.01,0.011 -0.009,0.011 -0.01,0.011 -0.01,0.01 -0.01,0.01 -0.01,0.01 -0.011,0.01 -0.01,0.01 -0.011,0.01 -0.011,0.009 -0.011,0.009 -0.011,0.009 -0.012,0.009 -0.011,0.008 -0.012,0.009 -0.011,0.008 -0.012,0.008 -0.012,0.008 -0.012,0.008 -0.012,0.007 -0.013,0.007 -0.012,0.007 -0.013,0.007 -0.012,0.007 -0.013,0.006 -0.013,0.006 -0.013,0.006 -0.013,0.006 -0.013,0.006 -0.013,0.005 -0.014,0.005 -0.013,0.005 -0.014,0.005 -0.013,0.005 -0.014,0.004 -0.014,0.004 -0.014,0.004 -0.013,0.004 -0.014,0.003 -0.015,0.003 -0.014,0.003 -0.014,0.003 -0.014,0.002 -0.015,0.003 -0.014,0.002 -0.014,0.002 -0.015,10e-4 -0.014,0.001 -0.015,0.002 h -0.015 l -0.014,0.001 h -0.015 -0.015 c 0,0 -73.529,0 -73.529,0 -0.315,0 -0.607,-0.168 -0.764,-0.441 L 5.118,75.913 5.111,75.9 5.103,75.887 5.097,75.874 5.09,75.861 5.084,75.848 5.078,75.834 5.072,75.821 5.066,75.808 5.061,75.794 5.055,75.781 5.051,75.767 5.046,75.753 5.041,75.739 5.037,75.726 5.033,75.712 5.029,75.698 5.026,75.684 5.022,75.67 5.019,75.656 5.016,75.642 5.014,75.628 5.011,75.614 5.009,75.6 5.007,75.585 5.005,75.571 5.004,75.557 5.002,75.543 5.001,75.529 V 75.514 L 5,75.5 V 75.486 75.471 75.457 75.443 L 5.001,75.429 V 75.414 L 5.002,75.4 5.004,75.386 5.005,75.372 5.007,75.357 5.009,75.343 5.011,75.329 5.014,75.315 5.016,75.301 5.019,75.287 5.022,75.273 5.026,75.259 5.029,75.245 5.033,75.231 5.037,75.217 5.041,75.203 5.046,75.19 5.051,75.176 5.055,75.162 5.061,75.149 5.066,75.135 5.072,75.122 5.078,75.109 5.084,75.095 5.09,75.082 5.097,75.069 5.103,75.056 5.111,75.043 Z m 2.292,1.324 6.334,10.971 H 85.236 L 57.352,39.029 51.018,50 65.47,75.03 l 0.007,0.013 0.007,0.013 0.007,0.013 0.006,0.013 0.007,0.013 0.006,0.014 0.006,0.013 0.005,0.013 0.006,0.014 0.005,0.013 0.005,0.014 0.005,0.014 0.004,0.013 0.004,0.014 0.004,0.014 0.004,0.014 0.004,0.014 0.003,0.014 0.003,0.014 0.003,0.014 0.003,0.014 0.002,0.014 0.002,0.014 0.002,0.014 0.002,0.015 0.002,0.014 10e-4,0.014 0.001,0.014 0.001,0.015 v 0.014 l 10e-4,0.014 v 0.014 0.015 L 65.587,75.5 v 0.014 l -0.001,0.015 -0.001,0.014 -10e-4,0.014 -0.002,0.014 -0.002,0.014 -0.002,0.015 -0.002,0.014 -0.002,0.014 -0.003,0.014 -0.003,0.014 -0.003,0.014 -0.003,0.014 -0.004,0.014 -0.004,0.014 -0.004,0.014 c 0,0 -10e-4,0.005 -10e-4,0.005 -0.002,0.007 -0.005,0.015 -0.007,0.022 l -0.005,0.014 -0.005,0.014 -0.005,0.013 -0.006,0.014 -0.005,0.013 -0.006,0.013 -0.006,0.014 -0.007,0.013 -0.006,0.013 -0.007,0.013 -0.007,0.013 -0.007,0.013 c -0.005,0.007 -0.009,0.014 -0.014,0.022 l -0.002,0.003 -0.007,0.012 -0.009,0.013 -0.008,0.012 -0.008,0.012 -0.009,0.011 c -0.017,0.023 -0.035,0.045 -0.054,0.066 l -10e-4,0.001 -0.01,0.011 c -0.165,0.175 -0.396,0.278 -0.643,0.278 z M 57.352,13.558 29.469,61.853 h 12.668 l 14.451,-25.03 0.008,-0.012 0.008,-0.013 0.007,-0.012 0.008,-0.013 0.009,-0.012 0.008,-0.012 0.009,-0.011 0.009,-0.012 0.008,-0.011 0.01,-0.012 0.009,-0.011 0.009,-0.011 0.01,-0.011 0.01,-0.01 0.01,-0.011 0.01,-0.01 0.01,-0.01 0.011,-0.01 0.01,-0.009 0.011,-0.01 0.011,-0.009 0.011,-0.009 0.011,-0.009 0.011,-0.009 0.012,-0.009 0.011,-0.008 0.012,-0.008 0.012,-0.009 0.012,-0.007 0.012,-0.008 0.012,-0.007 0.012,-0.008 0.013,-0.007 0.012,-0.007 0.013,-0.006 0.013,-0.007 0.013,-0.006 0.013,-0.006 0.013,-0.006 0.013,-0.005 0.013,-0.006 0.013,-0.005 0.014,-0.005 0.013,-0.005 0.014,-0.004 0.014,-0.004 0.013,-0.004 0.014,-0.004 0.014,-0.004 0.014,-0.003 0.014,-0.004 0.014,-0.003 0.015,-0.002 0.014,-0.003 0.014,-0.002 0.015,-0.002 0.014,-0.002 0.015,-10e-4 0.014,-0.002 0.015,-10e-4 0.014,-10e-4 h 0.015 l 0.015,-0.001 h 0.014 0.015 c 0.31,0.005 0.594,0.173 0.75,0.441 L 86.764,86.442 93.098,75.471 Z M 7.41,74.589 H 63.177 L 56.843,63.618 H 27.941 27.926 27.911 L 27.897,63.617 27.882,63.616 27.867,63.615 27.853,63.614 27.838,63.612 27.824,63.61 27.809,63.608 27.795,63.606 27.781,63.604 27.767,63.601 27.753,63.598 27.738,63.595 27.724,63.591 27.711,63.588 27.697,63.584 27.683,63.58 27.669,63.575 27.656,63.571 27.642,63.566 27.629,63.561 c 0,0 -0.001,0 -0.001,0 -0.013,-0.005 -0.026,-0.01 -0.039,-0.016 0,0 0,0 0,0 -0.171,-0.074 -0.316,-0.202 -0.412,-0.368 -0.121,-0.209 -0.149,-0.455 -0.085,-0.682 l 0.004,-0.013 c 0,0 0,-10e-4 0,-10e-4 0.003,-0.009 0.006,-0.018 0.009,-0.027 0,0 0.001,-0.005 0.001,-0.005 0.003,-0.007 0.005,-0.015 0.008,-0.022 0,0 0.002,-0.004 0.002,-0.004 0.004,-0.012 0.009,-0.025 0.015,-0.037 v -0.001 c 0.006,-0.013 0.012,-0.026 0.018,-0.038 l 0.006,-0.014 c 0.007,-0.013 0.014,-0.026 0.022,-0.038 L 55.824,12.676 H 43.156 Z M 44.175,61.853 H 55.824 L 50,51.765 Z"
     id="path1" /><path
     style="fill:#00cc99;fill-opacity:1;stroke:#00b487;stroke-width:0.941352;stroke-linejoin:round;stroke-opacity:1"
     d="M 23.936088,46.108344 C 32.943049,30.509029 40.965009,16.611842 41.762666,15.225706 l 1.450285,-2.520246 6.267941,-0.0015 6.26794,-0.0015 -0.246421,0.404732 c -0.422347,0.693685 -27.683346,47.93255 -28.133731,48.751169 -0.445188,0.809175 -0.457132,1.110099 -0.06192,1.560164 0.180205,0.205217 1.04584,0.218029 14.835831,0.219573 l 14.64446,0.0016 3.051058,5.29422 c 1.678082,2.911822 3.069739,5.348817 3.092569,5.415546 0.02686,0.0785 -9.73693,0.121325 -27.664685,0.121325 H 7.5597955 Z"
     id="path11" /><path
     style="fill:#00cc99;fill-opacity:1;stroke:#00b487;stroke-width:0.941352;stroke-linejoin:round;stroke-opacity:1"
     d="M 72.478625,61.55145 C 64.621306,47.937878 58.105827,36.701432 57.999783,36.581569 c -0.223497,-0.252623 -1.02232,-0.296268 -1.250276,-0.06831 -0.08229,0.08229 -3.410442,5.798356 -7.395891,12.702366 l -7.24627,12.552745 h -6.2541 -6.2541 l 5.913647,-10.24284 c 3.252505,-5.633561 9.480913,-16.421233 13.840906,-23.972602 4.359992,-7.55137 7.959971,-13.729764 7.999955,-13.729764 0.07928,0 35.52507,61.339989 35.584163,61.57945 0.01991,0.08068 -1.360907,2.566356 -3.06848,5.523733 l -3.104676,5.377051 z"
     id="path12" /><path
     style="fill:#00cc99;fill-opacity:1;stroke:#00b487;stroke-width:0.941352;stroke-linejoin:round;stroke-opacity:1"
     d="M 10.699851,81.911582 7.5894119,76.525529 36.339741,76.463259 65.09007,76.400989 65.390614,76.05158 c 0.165299,-0.192176 0.300544,-0.445902 0.300544,-0.563836 0,-0.117934 -3.280073,-5.895696 -7.289052,-12.839472 -4.008979,-6.943777 -7.2733,-12.665184 -7.254047,-12.714239 0.107103,-0.272893 6.147501,-10.696004 6.199388,-10.69746 0.03425,-9.6e-4 4.545455,7.770943 10.024907,17.270897 5.479452,9.499954 11.663165,20.216014 13.741586,23.813467 2.078421,3.597453 3.831638,6.638894 3.896038,6.758757 0.111389,0.20732 -1.619343,0.217933 -35.541298,0.217933 H 13.81029 Z"
     id="path13" /></svg>
